<svg width="12.000000" height="7.000000" viewBox="0 0 12 7" fill="none" xmlns="http://www.w3.org/2000/svg" xmlns:xlink="http://www.w3.org/1999/xlink">
	<desc>
			Created with Pixso.
	</desc>
	<defs/>
	<path id="arrow" d="M6 0C6.11057 -0.00012207 6.22006 0.02211 6.3222 0.0653992C6.42435 0.108704 6.51712 0.172226 6.59518 0.252319L11.7627 5.53951C11.9165 5.70184 12.0017 5.91953 12 6.14558C11.9982 6.37163 11.9097 6.58792 11.7534 6.74777C11.5972 6.90761 11.3857 6.9982 11.1648 6.99997C10.9438 7.00175 10.731 6.91458 10.5723 6.75726L6 2.07896L1.42767 6.75726C1.26898 6.91458 1.05618 7.00175 0.835236 6.99997C0.614258 6.9982 0.402832 6.90761 0.246582 6.74776C0.0903015 6.58792 0.00177002 6.37163 3.05176e-05 6.14558C-0.00170898 5.91953 0.0834961 5.70184 0.237274 5.53951L5.40482 0.252319C5.48288 0.172226 5.57565 0.108704 5.6778 0.0653992C5.77994 0.02211 5.88943 -0.00012207 6 0Z" fill="#959595" fill-opacity="1.000000" fill-rule="nonzero"/>
</svg>
